<svg width="580" height="580" xmlns="http://www.w3.org/2000/svg">
 <!-- Created with Method Draw - http://github.com/duopixel/Method-Draw/ -->
 <g>
  <title>background</title>
  <rect fill="#7f0000" id="canvas_background" height="582" width="582" y="-1" x="-1"/>
  <g display="none" overflow="visible" y="0" x="0" height="100%" width="100%" id="canvasGrid">
   <rect fill="url(#gridpattern)" stroke-width="0" y="0" x="0" height="100%" width="100%"/>
  </g>
 </g>
 <g>
  <title>Layer 1</title>
  <path id="svg_5" d="m289.072593,608.851361l0,0.03948l0.236121,0l0.353472,0.02763l0.00021,-0.09474l-0.353525,0.02763l-0.236278,0zm0.72533,-0.00454c-0.020644,-0.001945 -0.05379,-0.001945 -0.074329,0.00001c-0.020487,0.001955 -0.020487,0.00512 0.000105,0.00708l0,-0.00001c0.045333,0.00432 0.073279,0.010245 0.073279,0.01683c0,0.00658 -0.027893,0.012485 -0.073174,0.016805c-0.020697,0.001945 -0.020697,0.00511 -0.000105,0.007075c0.010243,0.000975 0.023691,0.001465 0.037138,0.001465c0.0135,0 0.026948,-0.00049 0.037191,-0.001465c0.064191,-0.0061 0.104009,-0.014575 0.103956,-0.02388c0.000053,-0.009325 -0.039923,-0.01781 -0.104061,-0.02391zm0.120556,-0.01147c-0.020644,-0.001955 -0.05379,-0.001955 -0.074224,0c-0.020592,0.001955 -0.020592,0.005125 0,0.00707c0.076168,0.007255 0.12313,0.017235 0.12313,0.028305c0,0.01106 -0.046962,0.021035 -0.123024,0.028295c-0.020592,0.00195 -0.020592,0.005115 0,0.00707c0.010243,0.000975 0.023691,0.001465 0.037191,0.001465c0.013448,0 0.026895,-0.00049 0.037138,-0.001465c0.094974,-0.009045 0.153859,-0.021575 0.153754,-0.035365c0.000053,-0.0138 -0.058833,-0.02634 -0.153964,-0.035375z" fill-opacity="null" stroke-opacity="null" stroke-width="10.5" stroke="#000" fill="#fff"/>
  <path stroke="#000" transform="rotate(32.324127197265625 129.30249023437509,169.21850585937497) " id="svg_6" d="m-84.892281,91.405744l0,155.625532l101.166897,0l151.446507,108.914221l0.090026,-373.453975l-151.469013,108.914221l-101.234416,0zm310.770302,-17.896148c-8.84507,-7.666962 -23.046697,-7.666962 -31.846754,0.039419c-8.777551,7.706381 -8.777551,20.18244 0.045013,27.90853l0,-0.039419c19.423144,17.028934 31.396623,40.384589 31.396623,66.341887c0,25.937589 -11.950973,49.214407 -31.35161,66.24334c-8.867577,7.666962 -8.867577,20.143021 -0.045013,27.888821c4.388775,3.843336 10.150449,5.774858 15.912124,5.774858c5.784181,0 11.545855,-1.931523 15.93463,-5.774858c27.502992,-24.045485 44.562949,-57.452942 44.540442,-94.132161c0.022507,-36.758057 -17.10497,-70.204932 -44.585455,-94.250417zm51.652509,-45.213396c-8.84507,-7.706381 -23.046697,-7.706381 -31.801741,0c-8.822564,7.706381 -8.822564,20.202149 0,27.869111c32.634483,28.59836 52.755329,67.93835 52.755329,111.574992c0,43.597224 -20.120847,82.917504 -52.710316,111.535573c-8.822564,7.686671 -8.822564,20.16273 0,27.869111c4.388775,3.843336 10.150449,5.774858 15.93463,5.774858c5.761674,0 11.523348,-1.931523 15.912124,-5.774858c40.691824,-35.65433 65.921655,-85.046121 65.876642,-139.404685c0.022507,-54.397982 -25.207325,-103.829193 -65.966668,-139.444103z" fill-opacity="null" stroke-opacity="null" stroke-width="20.5" fill="#fff"/>
  <path stroke="#000" transform="rotate(-1.8874591588974 422.73553466796903,401.2716064453116) " id="svg_7" d="m367.102244,204.99732c0,-19.352118 22.665339,20.861702 53.442434,20.861702c30.777142,0 57.97075,-40.21382 57.97075,-20.861702c0,19.352118 -24.929421,35.027348 -55.706563,35.027348c-30.777154,0 -55.706621,-15.675231 -55.706621,-35.027348zm187.295158,99.149762l0,-17.68981c0,-18.61229 -23.982575,-33.702896 -53.60023,-33.702896l-156.149187,0c-29.600508,0 -53.600218,15.090606 -53.600218,33.702896l0,17.68981c-0.051767,0.401533 -0.086317,0.813956 -0.086317,1.231777l0,101.890098c0,7.917006 10.200593,14.330902 22.791571,14.330902c12.573772,0 22.800144,-6.413928 22.800144,-14.330902l0,-100.381559l15.283516,0l0,114.723309l0.112188,0l0,162.100582c0,10.537885 13.609384,19.100619 30.385849,19.100619c16.78512,0 30.385849,-8.551876 30.385849,-19.100619l0,-162.100582l20.047242,0l0,162.100582c0,10.537885 13.617806,19.100619 30.385802,19.100619c16.78505,0 30.385779,-8.551876 30.385779,-19.100619l0,-162.100582l0.094925,0l0,-114.723309l15.283551,0l0,100.376099c0,7.917026 10.226348,14.336352 22.800167,14.336352c12.591141,0 22.791571,-6.419326 22.791571,-14.336352l0,-101.890066c-0.008562,-0.42325 -0.06041,-0.824814 -0.1122,-1.226358l0,0.00001z" fill-opacity="null" stroke-opacity="null" stroke-width="14.5" fill="#fff"/>
  <path stroke="#000" transform="rotate(-16.470346450805664 408.01708984374983,153.2050170898438) " id="svg_8" d="m408.017041,34.683348c-64.538583,0 -116.851973,53.064012 -116.851973,118.52169c0,65.461041 52.31339,118.521634 116.851973,118.521634c64.535563,0 116.85201,-53.060593 116.85201,-118.521634c0,-65.457677 -52.316438,-118.52169 -116.85201,-118.52169zm10.676328,186.78537l-21.763513,0l0,-21.168981l21.763513,0l0,21.168981zm0,-43.772148l0,6.996179l-21.763513,0l0,-8.620216c0,-26.01246 29.185332,-30.140386 29.185332,-48.628351c0,-8.430141 -7.431214,-14.887857 -17.159812,-14.887857c-10.081168,0 -18.923187,7.534202 -18.923187,7.534202l-12.390597,-15.616367c0,0 12.21277,-12.91902 33.261287,-12.91902c19.993967,0 38.558321,12.558265 38.558321,33.730347c0.00933,29.61802 -30.767831,33.033674 -30.767831,52.411075l0,0.000009z" fill-opacity="null" stroke-opacity="null" stroke-width="13.5" fill="#fff"/>
 </g>
</svg>