<svg width="580" height="580" xmlns="http://www.w3.org/2000/svg">
 <!-- Created with Method Draw - http://github.com/duopixel/Method-Draw/ -->
 <g>
  <title>background</title>
  <rect fill="#7f0000" id="canvas_background" height="582" width="582" y="-1" x="-1"/>
  <g display="none" overflow="visible" y="0" x="0" height="100%" width="100%" id="canvasGrid">
   <rect fill="url(#gridpattern)" stroke-width="0" y="0" x="0" height="100%" width="100%"/>
  </g>
 </g>
 <g>
  <title>Layer 1</title>
  <path stroke="#000" transform="rotate(-100.07315826416016 174.65075683593756,411.7164916992188) " id="svg_1" d="m174.650804,571.942214c80.91347,0 146.49996,-71.73583 146.49996,-160.2257c0,-88.49006 -65.58649,-160.22575 -146.49996,-160.22575c-80.90951,0 -146.50004,71.73569 -146.50004,160.22575c0,88.48987 65.59053,160.2257 146.50004,160.2257zm23.53613,-267.42558l35.64426,39.00511l-62.36415,68.20316l64.15841,69.54169l-36.45393,37.83275l-98.98971,-107.37443l98.00512,-107.20827l0,-0.00001z" stroke-width="22.5" fill="#fff"/>
  <path stroke="#000" transform="rotate(-101.29322052001953 431.6216430664063,227.9458312988281) " id="svg_2" d="m431.621702,446.45989c114.852175,0 207.948564,-97.832528 207.948564,-218.514034c0,-120.681755 -93.096389,-218.514092 -207.948564,-218.514092c-114.846556,0 -207.948674,97.832337 -207.948674,218.514092c0,120.681506 93.102117,218.514034 207.948674,218.514034zm33.408222,-364.712037l50.595048,53.194731l-88.52245,93.014716l88.52245,93.020351l-50.595048,53.177173l-139.112829,-146.197505l139.112829,-146.209446l0,-0.000019z" fill-opacity="null" stroke-opacity="null" stroke-width="23.5" fill="#fff"/>
 </g>
</svg>