<svg width="580" height="580" xmlns="http://www.w3.org/2000/svg">
 <!-- Created with Method Draw - http://github.com/duopixel/Method-Draw/ -->
 <g>
  <title>background</title>
  <rect fill="#7f0000" id="canvas_background" height="582" width="582" y="-1" x="-1"/>
  <g display="none" overflow="visible" y="0" x="0" height="100%" width="100%" id="canvasGrid">
   <rect fill="url(#gridpattern)" stroke-width="0" y="0" x="0" height="100%" width="100%"/>
  </g>
 </g>
 <g>
  <title>Layer 1</title>
  <path stroke="#000" transform="rotate(7.033069133758545 392.43551635742114,325.4636230468751) " id="svg_1" d="m286.801077,471.954022c-23.926906,-13.159083 -7.525207,-55.125816 -23.413291,-76.251247c-21.091515,-17.764866 -3.454911,-55.374774 -20.464705,-76.28043c-12.182962,-15.237523 -8.52875,-38.094734 -5.985951,-57.723037c8.458738,-91.571215 0.694984,-79.125929 18.996255,-81.624328c105.721333,-1.761352 80.313372,-9.234534 186.03647,-7.766706c28.08503,1.834756 60.226434,-2.738107 82.418094,26.782817c26.435555,34.755348 26.058936,90.158553 26.110871,137.371461c-0.687674,44.039774 -4.72005,96.293691 -33.331121,122.526535c-26.632527,25.096157 -60.09702,17.573836 -90.388312,19.759825c-45.462566,-0.687763 -91.226694,2.393645 -136.454389,-5.195561l-3.523941,-1.599297l0,0l0.000021,-0.000031zm112.803282,-24.194198c15.669589,-25.736717 -5.728815,-46.981394 -23.841886,-40.238322c-26.267417,-0.241403 -53.128799,-3.900399 -78.951486,4.021215c-22.248064,11.906488 -7.900405,49.371105 12.145167,41.840371c29.365197,2.347489 59.346363,4.173853 88.32337,-3.866004l2.324836,-1.757281l0,0.000021zm107.271095,-4.987632c25.484416,-19.933149 25.675028,-65.550078 26.439972,-101.397097c-0.556359,-37.82512 2.776292,-79.250764 -11.463509,-113.12281c-11.776172,-24.843715 -33.710267,-33.285658 -53.913847,-32.356827c-38.017147,0.08638 -76.597848,-4.187152 -114.158254,5.786355c-35.405818,33.444919 -36.170606,47.962272 -38.165985,80.638992c-0.78652,31.623975 -2.963154,64.181888 1.993145,95.23652c11.789884,11.525957 25.861087,-20.941003 31.192616,-35.341454c7.024824,-26.755234 -1.00865,-60.153829 13.194181,-82.938451c14.191782,-21.687511 40.616361,-19.55628 52.918387,4.324606c13.636185,21.156341 -0.786238,49.716655 2.966131,74.510268c6.755469,22.75638 -1.139244,44.59206 -1.395816,65.323712c6.733078,15.744302 4.683665,34.440028 2.621793,51.572904c26.374608,-1.322756 53.465253,3.907713 79.15391,-6.230004c3.007424,-1.585777 5.879992,-3.648961 8.617257,-6.006715l0.000021,0zm-205.87588,-82.36575c3.559397,-31.390598 -30.351498,-28.865233 -33.34216,-3.597855c-7.136077,28.031697 28.653399,35.676833 33.809761,16.114317c0.060185,-4.185635 -0.228647,-8.352048 -0.467601,-12.516462zm101.607144,0.968133c2.303584,-27.032873 -33.449737,-27.302205 -40.27032,-8.321106c-3.813306,11.531283 -16.334402,34.955523 1.843857,28.856391c12.278529,-3.903758 40.87428,8.597877 38.426463,-20.535306l0,0.000021zm-101.593912,-71.29375c-1.225955,-6.741764 4.933188,-23.573676 -1.842291,-22.733349c-14.984087,2.325724 -31.044947,-1.03797 -45.083472,7.309087c-12.644537,24.375182 8.531925,48.184736 25.904709,40.191768c12.676671,0.262948 22.635084,-2.85184 21.021064,-24.767506l-0.00001,0zm99.253422,17.257951c14.412136,-21.858334 -8.065138,-50.320204 -24.315377,-35.904476c-16.91641,12.388613 -11.863771,57.532395 10.715963,43.944594c4.831459,-1.248755 9.987143,-2.980295 13.599414,-8.040139l0,0.000021zm-76.751678,-112.089612c-73.198945,0.551334 13.38025,-2.51962 -59.788858,0.566381c4.627093,14.122183 9.203463,47.68163 40.231732,47.667744c3.259516,-8.038988 6.519052,-16.078091 9.778547,-24.117162l9.778579,-24.116963z" stroke-width="9.5" fill="#fff"/>
  <path stroke="#000" transform="rotate(-30.732311248779297 214.40274047851562,111.57433319091794) " id="svg_2" d="m214.40275,79.271794c27.284078,-73.55029 134.183991,0 0,94.564658c-134.183991,-94.564658 -27.284078,-168.114948 0,-94.564658z" fill-opacity="null" stroke-opacity="null" stroke-width="9.5" fill="#fff"/>
  <path stroke="#000" transform="rotate(-79.6931381225586 120.80128479003906,255.33218383789062) " id="svg_3" d="m120.801281,220.228996c26.034405,-79.927133 128.03806,0 0,102.763457c-128.03806,-102.763457 -26.034405,-182.69059 0,-102.763457z" fill-opacity="null" stroke-opacity="null" stroke-width="9.5" fill="#fff"/>
  <path stroke="#000" transform="rotate(-118.34239196777344 165.1877136230469,472.83935546875006) " id="svg_6" d="m165.187717,440.195733c26.502349,-74.326908 130.33942,0 0,95.563168c-130.33942,-95.563168 -26.502349,-169.890076 0,-95.563168z" fill-opacity="null" stroke-opacity="null" stroke-width="9.5" fill="#fff"/>
  <line stroke-linecap="null" stroke-linejoin="null" id="svg_7" y2="142.85" x2="310.5" y1="29.85" x1="289.5" fill-opacity="null" stroke-opacity="null" stroke-width="9.5" stroke="#000" fill="none"/>
  <line stroke-linecap="null" stroke-linejoin="null" id="svg_8" y2="194.85" x2="184.5" y1="126.85" x1="37.5" fill-opacity="null" stroke-opacity="null" stroke-width="9.5" stroke="#000" fill="none"/>
  <line stroke-linecap="null" stroke-linejoin="null" id="svg_9" y2="419.85" x2="47.5" y1="372.85" x1="200.5" fill-opacity="null" stroke-opacity="null" stroke-width="9.5" stroke="#000" fill="none"/>
  <line transform="rotate(-9.09860897064209 258.0000000000013,542.3499755859377) " stroke-linecap="null" stroke-linejoin="null" id="svg_10" y2="580.85" x2="214.5" y1="503.85" x1="301.5" fill-opacity="null" stroke-opacity="null" stroke-width="9.5" stroke="#000" fill="none"/>
 </g>
</svg>