<svg width="580" height="580" xmlns="http://www.w3.org/2000/svg">
 <!-- Created with Method Draw - http://github.com/duopixel/Method-Draw/ -->
 <g>
  <title>background</title>
  <rect fill="#7f0000" id="canvas_background" height="582" width="582" y="-1" x="-1"/>
  <g display="none" overflow="visible" y="0" x="0" height="100%" width="100%" id="canvasGrid">
   <rect fill="url(#gridpattern)" stroke-width="0" y="0" x="0" height="100%" width="100%"/>
  </g>
 </g>
 <g>
  <title>Layer 1</title>
  <path id="svg_4" d="m363.255859,591.016831c0,0 0,-0.056275 0.02425,-0.092704c0.013896,-0.020581 0.058274,-0.031041 0.058274,-0.031041c0,0 0.047657,-0.015131 0.105408,-0.011917c0.044742,0.002479 0.102594,0.023397 0.102594,0.023397c0,0 0.063924,0.001383 0.085862,0.029659c0.026784,0.034767 -0.015503,0.075321 -0.015503,0.075321c0,0 0.00561,0.023664 0.027186,0.043544c0.017776,0.016343 0.052362,0.029866 0.052362,0.029866c0,0 0.006555,0.004107 0.011462,0.01192c0.004343,0.007129 0.006876,0.01829 0.006876,0.01829c0,0 0.021315,0.013448 0.022784,0.030113c0.001628,0.017817 -0.01663,0.038984 -0.01663,0.038984c0,0 -0.008324,0.032932 -0.023446,0.056707c-0.009752,0.015435 -0.028655,0.025309 -0.028655,0.025309c0,0 -0.043313,0.031381 -0.096218,0.038627c-0.040016,0.005463 -0.093444,-0.012713 -0.093444,-0.012713c0,0 0.027448,0.074091 0.024352,0.149565c0.004386,0.118463 -0.10037,0.218463 -0.145183,0.351881c-0.015826,0.040196 -0.006073,0.086917 -0.006073,0.086917c0,0 -0.004544,0.117257 -0.021274,0.221667c-0.013634,0.085801 -0.039815,0.162484 -0.039815,0.162484c0,0 0.016022,0.046347 0.012126,0.07623c0.01358,0.007617 0.07168,0.040951 0.064287,0.067603c-0.011093,0.001681 -0.031631,-0.008626 -0.031631,-0.008626c0,0 -0.00941,0.009458 -0.021034,0.010897c-0.008545,0.001133 -0.016529,0.002744 -0.020269,-0.005526c-0.020027,0.004103 -0.055539,-0.011047 -0.055539,-0.011047c0,0 -0.027327,-0.018765 -0.040216,-0.038737c-0.006978,-0.010708 -0.017986,-0.000788 -0.0037,-0.028867c0.014286,-0.028079 -0.001468,-0.033629 -0.001468,-0.033629c0,0 -0.031932,0.014412 -0.053207,0.013543c-0.010456,-0.000492 -0.018338,-0.016644 -0.018338,-0.016644c0,0 0.00384,-0.033709 0.001306,-0.063253c-0.00374,-0.04203 -0.014357,-0.084211 -0.014357,-0.084211c0,0 -0.025577,-0.025917 -0.045525,-0.100197c-0.013795,-0.051277 -0.015262,-0.123176 -0.024915,-0.176119c-0.009652,-0.053851 -0.029039,-0.089235 -0.027448,-0.088411c-0.046486,0.055842 -0.104765,0.069097 -0.104765,0.069097c0,0 0.009511,0.084856 0.001508,0.154046c-0.007682,0.066714 -0.032837,0.117824 -0.032837,0.117824c0,0 -0.026592,0.061541 -0.034566,0.103205c-0.005675,0.029656 0.001133,0.036927 0.006314,0.044299c0.03159,0.034871 0.172438,-0.028462 0.20589,0.017137c0.003439,0.001817 0.010718,0.010365 0.019143,0.015207c0.008948,0.005147 0.026684,0.03057 0.021335,0.033445c-0.004444,0.002497 -0.013995,-0.000341 -0.013995,-0.000341c0,0 0.002573,0.015547 -0.003338,0.021223c-0.006314,0.005787 -0.021034,0.001852 -0.021034,0.001852c0,0 -0.009592,-0.007187 -0.027589,-0.009229c-0.017132,-0.00193 -0.042851,0.001285 -0.042851,0.001285c0,0 -0.069879,-0.02404 -0.131549,0.015739c-0.032522,0.016055 -0.057369,0.016154 -0.090307,0.020011c-0.018338,0.002157 -0.026644,-0.01131 -0.026644,-0.01131c0,0 -0.006053,0.007604 -0.018178,0.014186c-0.013814,0.007339 -0.028554,0.018157 -0.028554,0.018157c0,0 0.006917,0.00806 0.018038,0.01377c0.007018,0.003483 0.020269,0.005677 0.020269,0.005677c0,0 0.051186,0.007508 0.099557,-0.007073c0.008023,-0.000454 0.066659,0.029317 0.07428,0.035672c0.005811,0.004767 -0.005665,0.019477 -0.015403,0.023304c-0.049735,0.027827 -0.084947,-0.013284 -0.164607,0.015247c-0.073512,0.008413 -0.1039,-0.001061 -0.128413,-0.017856c-0.016267,-0.011123 -0.017595,-0.034881 -0.017595,-0.034881c0,0 -0.023547,-0.029774 -0.025417,-0.057466c-0.000805,-0.012218 0.031087,-0.055687 0.044419,-0.077855c0.010979,-0.018083 0.023869,-0.040213 0.023869,-0.040213c0,0 0.010295,-0.020579 0.017273,-0.046834c0.005208,-0.019069 0.006173,-0.041576 0.012588,-0.059849c0.007681,-0.022397 0.021315,-0.040099 0.021315,-0.040099c0,0 -0.036879,-0.027655 -0.065131,-0.062271c-0.034968,-0.042995 -0.062577,-0.094557 -0.062577,-0.094557c0,0 -0.09101,-0.063631 -0.158977,-0.140181c-0.043011,-0.048331 -0.075004,-0.123064 -0.075004,-0.123064c0,0 -0.015939,0.015691 -0.038548,0.035543c-0.160645,0.141052 -0.173503,0.427947 -0.224027,0.73883c-0.032865,0.202222 -0.1113,0.331305 -0.162195,0.373183c-0.04633,0.038171 -0.104463,0.040139 -0.104463,0.040139c0,0 -0.036336,0.000567 -0.040478,-0.006507c-0.003982,-0.006546 0.024411,-0.020884 0.024411,-0.020884c0,0 0.052106,-0.025248 0.084797,-0.065219c0.136893,-0.167378 0.150688,-0.652709 0.212012,-0.858489c0.030991,-0.103994 0.072771,-0.382222 0.364314,-0.534076c0.211855,-0.110348 0.669745,-0.184813 0.784447,-0.322468c0.023045,-0.027657 0.048019,-0.056236 0.048019,-0.056236z" fill-opacity="null" stroke-opacity="null" stroke-width="1.5" stroke="#000" fill="#fff"/>
  <path stroke="#000" transform="rotate(-1.5053869485855103 577.2144775390618,249.54077148437216) " id="svg_5" d="m472.945668,114.604029c0,0 0,-8.789908 -4.877854,-14.480044c-2.795197,-3.214629 -11.721923,-4.848445 -11.721923,-4.848445c0,0 -9.586144,-2.363358 -21.202814,-1.861342c-8.999821,0.387263 -20.636749,3.654583 -20.636749,3.654583c0,0 -12.858304,0.216072 -17.271236,4.632685c-5.387682,5.430537 3.118461,11.764828 3.118461,11.764828c0,0 -1.128448,3.696235 -5.468427,6.801422c-3.575592,2.552772 -10.532703,4.664966 -10.532703,4.664966c0,0 -1.318553,0.641551 -2.305627,1.861863c-0.873605,1.113577 -1.383149,2.856835 -1.383149,2.856835c0,0 -4.287565,2.100531 -4.582922,4.703599c-0.327513,2.782902 3.345114,6.089166 3.345114,6.089166c0,0 1.674398,5.143864 4.716222,8.857489c1.961681,2.410946 5.763926,3.953126 5.763926,3.953126c0,0 8.712397,4.901552 19.354318,6.033456c8.049154,0.853354 18.796327,-1.985779 18.796327,-1.985779c0,0 -5.521265,11.572706 -4.898395,23.361484c-0.882247,18.503563 20.189392,34.123217 29.203521,54.962647c3.18334,6.278476 1.221518,13.576083 1.221518,13.576083c0,0 0.91412,18.315086 4.279349,34.623671c2.7425,13.401767 8.008781,25.379439 8.008781,25.379439c0,0 -3.222863,7.239293 -2.439069,11.906862c-2.731593,1.189801 -14.418384,6.396352 -12.931258,10.559303c2.231398,0.262618 6.362573,-1.347351 6.362573,-1.347351c0,0 1.892835,1.477307 4.230902,1.702022c1.718879,0.176919 3.324715,0.428603 4.077203,-0.863142c4.028472,0.640926 11.171723,-1.725451 11.171723,-1.725451c0,0 5.496758,-2.930976 8.089526,-6.050533c1.403548,-1.672553 3.617806,-0.123083 0.744272,-4.508978c-2.873676,-4.385895 0.295215,-5.252786 0.295215,-5.252786c0,0 6.423202,2.251105 10.702551,2.115422c2.103197,-0.076849 3.688776,-2.599735 3.688776,-2.599735c0,0 -0.772461,-5.265281 -0.262776,-9.879952c0.752204,-6.564941 2.887983,-13.153415 2.887983,-13.153415c0,0 5.14488,-4.048094 9.157345,-15.650477c2.774798,-8.009342 3.070014,-19.239665 5.011579,-27.509231c1.941566,-8.411392 5.841129,-13.93825 5.521124,-13.80944c9.350708,8.722327 21.073481,10.792764 21.073481,10.792764c0,0 -1.913234,13.254214 -0.303432,24.061452c1.545206,10.420496 6.605233,18.403701 6.605233,18.403701c0,0 5.349009,9.612543 6.953003,16.120212c1.141622,4.632165 -0.227928,5.767922 -1.270106,6.919299c-6.354356,5.446782 -34.685972,-4.445666 -41.41473,2.676688c-0.691716,0.283757 -2.155894,1.618925 -3.850692,2.375229c-1.799908,0.803892 -5.367425,4.774928 -4.291531,5.223941c0.893862,0.389971 2.815171,-0.053211 2.815171,-0.053211c0,0 -0.517619,2.42844 0.671459,3.314907c1.270106,0.903961 4.230902,0.289276 4.230902,0.289276c0,0 1.929383,-1.122637 5.549455,-1.441486c3.446116,-0.301459 8.619469,0.20066 8.619469,0.20066c0,0 14.056164,-3.754965 26.461162,2.458325c6.54177,2.507683 11.53975,2.523199 18.16524,3.125701c3.688776,0.336864 5.35935,-1.766583 5.35935,-1.766583c0,0 1.217551,1.187718 3.656478,2.215804c2.778765,1.146274 5.743668,2.836113 5.743668,2.836113c0,0 -1.391366,1.258944 -3.628288,2.150826c-1.411623,0.54398 -4.077061,0.886676 -4.077061,0.886676c0,0 -10.296134,1.172724 -20.025919,-1.10483c-1.61391,-0.070913 -13.408504,4.579162 -14.941527,5.571843c-1.168962,0.744641 1.139498,3.042188 3.098345,3.640004c10.004177,4.346533 17.087081,-2.074915 33.110734,2.381581c14.786978,1.314134 20.899524,-0.165672 25.830217,-2.789045c3.27216,-1.737426 3.539185,-5.448344 3.539185,-5.448344c0,0 4.736479,-4.650596 5.112582,-8.97599c0.161915,-1.908409 -6.253213,-8.698065 -8.934942,-12.16063c-2.208449,-2.82445 -4.801217,-6.281184 -4.801217,-6.281184c0,0 -2.070899,-3.214421 -3.474448,-7.315309c-1.047561,-2.978564 -1.241775,-6.494027 -2.532138,-9.348155c-1.545065,-3.498386 -4.287423,-6.263377 -4.287423,-6.263377c0,0 7.418209,-4.319563 13.101106,-9.726463c7.03389,-6.715618 12.587453,-14.769528 12.587453,-14.769528c0,0 18.306757,-9.938994 31.978178,-21.895735c8.651767,-7.549083 15.087152,-19.222171 15.087152,-19.222171c0,0 3.206147,2.450932 7.753938,5.551642c32.313766,22.031835 34.900159,66.843893 45.062993,115.40269c6.610757,31.586377 22.388067,51.748747 32.625555,58.289946c9.31926,5.962126 21.012709,6.269521 21.012709,6.269521c0,0 7.30899,0.088511 8.142081,-1.016423c0.800935,-1.022463 -4.910294,-3.262009 -4.910294,-3.262009c0,0 -10.481139,-3.94365 -17.056907,-10.187034c-27.536064,-26.143865 -30.310862,-101.950836 -42.646306,-134.093064c-6.233805,-16.243503 -14.637954,-59.701754 -73.281848,-83.420824c-42.614716,-17.235976 -134.719381,-28.867099 -157.791799,-50.368386c-4.635477,-4.319876 -9.659098,-8.783869 -9.659098,-8.783869z" fill-opacity="null" stroke-opacity="null" stroke-width="11.5" fill="#fff"/>
  <path stroke="#000" transform="rotate(16.546588897705078 353.4113464355469,52.51577758789064) " id="svg_7" d="m368.425974,1.697504l-28.29882,28.609002l11.668754,3.376312l-35.633615,24.511646l11.663526,4.09354l-44.050593,41.046039l74.717669,-31.455023l-14.251355,-4.368223l46.424076,-20.147238l-16.635294,-6.226149l49.017133,-21.135334l-54.621481,-18.304573z" fill-opacity="null" stroke-opacity="null" stroke-width="7.5" fill="#fff"/>
  <path stroke="#000" transform="rotate(64.35826110839844 308.7512512207031,135.5874938964844) " id="svg_8" d="m318.36562,96.000871l-18.120681,22.285956l7.471894,2.630094l-22.817396,19.094183l7.468542,3.188801l-28.207068,31.974212l47.844227,-24.502961l-9.125619,-3.402774l29.726891,-15.694381l-10.652138,-4.850071l31.387312,-16.464089l-34.975965,-14.25897z" fill-opacity="null" stroke-opacity="null" stroke-width="7.5" fill="#fff"/>
  <path id="svg_10" d="m133.661468,43.755016c0,0 0,-13.956116 6.159322,-22.990589c3.529527,-5.104005 14.801405,-7.698084 14.801405,-7.698084c0,0 12.104533,-3.752405 26.773035,-2.955333c11.364177,0.614875 26.058258,5.802538 26.058258,5.802538c0,0 16.236327,0.343067 21.808587,7.355514c6.803087,8.622298 -3.937716,18.679523 -3.937716,18.679523c0,0 1.424904,5.868671 6.905045,10.798911c4.51494,4.053146 13.299764,7.406767 13.299764,7.406767c0,0 1.664952,1.018619 2.911341,2.95616c1.103111,1.768074 1.746519,4.535919 1.746519,4.535919c0,0 5.413957,3.335104 5.786908,7.468106c0.413555,4.418533 -4.223913,9.668031 -4.223913,9.668031c0,0 -2.114282,8.167135 -5.955228,14.063417c-2.477037,3.827962 -7.278174,6.276549 -7.278174,6.276549c0,0 -11.001243,7.782404 -24.438918,9.579577c-10.163758,1.354906 -23.734336,-3.152906 -23.734336,-3.152906c0,0 6.971765,18.374483 6.185259,37.092033c1.114023,29.378903 -25.493376,54.1789 -36.875619,87.26656c-4.01964,9.968607 -1.542424,21.555331 -1.542424,21.555331c0,0 -1.154269,29.07965 -5.403583,54.973492c-3.462986,21.278563 -10.112779,40.296027 -10.112779,40.296027c0,0 4.069546,11.494137 3.07984,18.905038c3.449213,1.889098 18.206258,10.155764 16.328446,16.765459c-2.817612,0.416971 -8.034093,-2.139248 -8.034093,-2.139248c0,0 -2.390105,2.345584 -5.342408,2.702373c-2.170448,0.280901 -4.198156,0.680512 -5.14833,-1.370448c-5.086798,1.017627 -14.106662,-2.739573 -14.106662,-2.739573c0,0 -6.940819,-4.653637 -10.214737,-9.606692c-1.772276,-2.655584 -4.568244,-0.195424 -0.9398,-7.159098c3.628623,-6.963674 -0.372772,-8.340074 -0.372772,-8.340074c0,0 -8.110651,3.574176 -13.514233,3.358746c-2.655731,-0.122016 -4.65786,-4.127711 -4.65786,-4.127711c0,0 0.975396,-8.359914 0.33181,-15.686825c-0.949817,-10.423439 -3.646689,-20.884243 -3.646689,-20.884243c0,0 -6.496498,-6.427333 -11.563084,-24.848936c-3.50377,-12.716777 -3.876541,-30.547644 -6.328179,-43.677589c-2.451637,-13.355129 -7.37566,-22.13036 -6.971586,-21.925843c-11.807246,13.848814 -26.609724,17.136137 -26.609724,17.136137c0,0 2.415862,21.044285 0.383147,38.203403c-1.95115,16.54507 -8.340503,29.220348 -8.340503,29.220348c0,0 -6.754255,15.262249 -8.779637,25.594754c-1.44154,7.354687 0.287807,9.157978 1.603778,10.986068c8.023718,8.64809 43.798372,-7.058575 52.294852,4.249893c0.873438,0.450533 2.722272,2.570437 4.862312,3.771253c2.272764,1.276373 6.777508,7.581359 5.418966,8.294276c-1.12869,0.619173 -3.554748,-0.084485 -3.554748,-0.084485c0,0 0.653603,3.855738 -0.847859,5.263221c-1.603778,1.435258 -5.342408,0.459296 -5.342408,0.459296c0,0 -2.436254,-1.782458 -7.00736,-2.288709c-4.35145,-0.47864 -10.883902,0.318597 -10.883902,0.318597c0,0 -17.748879,-5.961919 -33.412811,3.903189c-8.260368,3.981557 -14.571374,4.006191 -22.937456,4.96281c-4.65786,0.534853 -6.767312,-2.80488 -6.767312,-2.80488c0,0 -1.537416,1.885792 -4.617077,3.518128c-3.508778,1.819989 -7.252596,4.503018 -7.252596,4.503018c0,0 1.756893,1.99888 4.581481,3.41496c1.782472,0.863701 5.148152,1.407813 5.148152,1.407813c0,0 13.001046,1.861984 25.286956,-1.754186c2.037903,-0.112592 16.93107,7.270532 18.866837,8.846655c1.476062,1.182299 -1.438857,4.830213 -3.912316,5.779391c-12.632388,6.901178 -21.576051,-3.294432 -41.809301,3.781338c-18.671686,2.086506 -26.390068,-0.263045 -32.61611,-4.428287c-4.131794,-2.758586 -4.46897,-8.65057 -4.46897,-8.65057c0,0 -5.980807,-7.383951 -6.455715,-14.251566c-0.204452,-3.030064 7.896003,-13.810292 11.282253,-19.307955c2.788634,-4.484501 6.062552,-9.972905 6.062552,-9.972905c0,0 2.614948,-5.103674 4.387225,-11.614831c1.322768,-4.729194 1.568003,-10.310847 3.19736,-14.842467c1.950971,-5.554538 5.413778,-9.944633 5.413778,-9.944633c0,0 -9.367056,-6.858356 -16.542915,-15.443123c-8.881773,-10.662676 -15.894321,-23.450216 -15.894321,-23.450216c0,0 -23.11615,-15.780569 -40.37921,-34.764801c-10.924685,-11.986004 -19.050719,-30.519868 -19.050719,-30.519868c0,0 -4.048439,3.89145 -9.790986,8.81458c-40.80296,34.980892 -44.068828,106.130925 -56.901555,183.229817c-8.347479,50.15105 -28.269668,82.163712 -41.19666,92.549455c-11.767536,9.466324 -26.532988,9.954388 -26.532988,9.954388c0,0 -9.229145,0.140533 -10.281099,-1.613818c-1.011349,-1.623408 6.200284,-5.179231 6.200284,-5.179231c0,0 13.234654,-6.261503 21.537951,-16.174393c34.770102,-41.509739 38.273871,-161.871729 53.849977,-212.905328c7.871497,-25.790509 18.483512,-94.791044 92.533825,-132.450831c53.810088,-27.366301 170.111699,-45.833536 199.245504,-79.972054c5.85327,-6.858852 12.196653,-13.946526 12.196653,-13.946526z" fill-opacity="null" stroke-opacity="null" stroke-width="7.5" stroke="#000" fill="#fff"/>
  <path stroke="#000" id="svg_12" d="m385.30779,512.389723c-21.20402,-6.831253 -29.67064,-25.605895 -29.67064,-25.605895s-9.55304,4.252576 -9.55304,-7.690812s9.55304,7.690812 19.10609,-38.423915c0,0 26.48628,-5.986767 21.20401,-55.4945l-6.3687,0c0,0 15.90301,-52.930896 0,-70.861052c-15.92174,-17.930155 -22.2717,-29.873544 -57.2808,-38.423915s-22.25297,-6.846337 -47.70903,-5.971694c-25.45605,0.85957 -46.67879,11.943388 -46.67879,17.915082c0,0 -15.90301,0.859559 -22.25298,5.986767c-6.36869,5.127208 -16.9707,29.013974 -16.9707,35.000741s5.301,46.114727 10.60201,54.650026l-6.3125,1.704045c-5.30101,49.507733 21.20401,55.4945 21.20401,55.4945c9.53431,46.114727 19.08736,26.480538 19.08736,38.423915s-9.55305,7.690812 -9.55305,7.690812s-8.46662,18.774641 -29.67063,25.605895c-21.20401,6.816169 -138.9125,43.520966 -148.48428,51.211778c-9.57177,7.705897 -8.48535,43.551123 -8.48535,43.551123l504.75663,0c0,0 1.10516,-35.845227 -8.46661,-43.551123c-9.59051,-7.690812 -127.299,-44.395609 -148.50301,-51.211778zm-233.5813,-2.593762c-1.85442,-2.714413 -2.77226,-4.674813 -2.77226,-4.674813s-8.09199,3.60413 -8.09199,-6.514572s8.09199,6.514572 16.18398,-32.557778c0,0 22.45902,-5.066893 17.96347,-47.034612l-5.39466,0c0,0 2.6786,-8.912294 4.43936,-20.116764c-0.07493,-4.644645 0.11239,-9.590897 0.69306,-15.019702l0.7118,-6.424089c-0.39336,-7.419373 -2.00427,-14.160154 -5.84422,-18.488118c-13.48665,-15.185585 -18.88131,-25.319371 -48.53321,-32.557778c-29.6519,-7.238417 -18.88131,-5.805812 -40.44122,-5.066893c-21.57864,0.723845 -39.56084,10.118702 -39.56084,15.200669c0,0 -13.48665,0.723845 -18.88131,5.066893c-5.07623,4.086682 -13.20568,22.046995 -14.17972,28.425854l0,4.237481c0.88038,9.847263 4.83272,36.930994 8.78506,43.309842l-5.3572,1.44769c-4.47682,41.967719 17.96347,47.034601 17.96347,47.034601c8.09199,39.072361 16.18398,22.439086 16.18398,32.557789s-8.09199,6.514572 -8.09199,6.514572s-7.17415,15.939587 -25.15635,21.700157c-1.14262,0.361923 -2.60367,0.844486 -4.3457,1.387364l0,78.928871l10.77059,0c-0.54321,-19.272278 1.44232,-44.139243 13.97367,-54.197631c6.6684,-5.353406 28.52801,-14.160143 118.98223,-43.159032zm418.27348,-136.564738c-0.74925,-5.700255 -2.37889,-10.782221 -5.46958,-14.265711c-13.46792,-15.200669 -18.88131,-25.319371 -48.51448,-32.557778c-29.67063,-7.238417 -18.88131,-5.805812 -40.45995,-5.066893c-21.55991,0.723845 -39.54211,10.118702 -39.54211,15.200669c0,0 -13.46792,0.723845 -18.88131,5.066893c-5.07623,4.101767 -13.28061,22.197794 -14.19845,28.516326l0.61814,0l1.49851,13.768074c0.37463,3.483478 0.4121,6.574887 0.50575,9.726611c1.68583,10.043303 3.93361,20.358045 6.18138,23.962164l-5.35719,1.44769c-4.47682,41.967719 17.9822,47.034601 17.9822,47.034601c8.09199,39.072361 16.16525,22.439086 16.16525,32.557789s-8.09199,6.514572 -8.09199,6.514572s-0.99277,2.141356 -3.05323,5.097051c89.34906,28.652051 111.02136,37.398462 117.61483,42.736795c12.55008,10.058376 14.51688,34.910268 13.97367,54.19762l8.9911,0l0,-80.014627c-0.2997,-0.090483 -0.71179,-0.226197 -0.97403,-0.316681c-17.96347,-5.775654 -25.15635,-21.700157 -25.15635,-21.700157s-8.11073,3.604119 -8.11073,-6.514572s8.11073,6.514572 16.18399,-32.557789c0,0 15.06009,-3.453321 18.03839,-27.762334l0,-18.503191c-0.01873,-0.271439 -0.01873,-0.497637 -0.05619,-0.769076l-5.4134,0c0,0 4.02727,-13.421225 5.46959,-28.063942l0,-17.734105l0.05619,0z" fill-opacity="null" stroke-opacity="null" stroke-width="17.5" fill="#fff"/>
 </g>
</svg>