<svg width="580" height="580" xmlns="http://www.w3.org/2000/svg">
 <!-- Created with Method Draw - http://github.com/duopixel/Method-Draw/ -->
 <g>
  <title>background</title>
  <rect fill="#7f0000" id="canvas_background" height="582" width="582" y="-1" x="-1"/>
  <g display="none" overflow="visible" y="0" x="0" height="100%" width="100%" id="canvasGrid">
   <rect fill="url(#gridpattern)" stroke-width="0" y="0" x="0" height="100%" width="100%"/>
  </g>
 </g>
 <g>
  <title>Layer 1</title>
  <path id="svg_3" d="m-85.699019,102.610825c-0.013834,0.054925 -0.049171,0.107418 -0.05155,0.164056c0.003166,0.032794 -0.02821,0.050408 -0.071162,0.049788c-0.046197,0.033578 0.005702,0.086643 0.057973,0.100198c0.053345,0.025108 0.119523,-0.002948 0.172366,0.019575c0.070167,0.038461 0.09946,0.106652 0.075252,0.166435c-0.024069,0.049351 0.099138,0.031402 0.052796,-0.008048c-0.035792,-0.038559 0.06747,-0.025811 0.041034,0.010798c-0.004995,0.029386 0.030913,0.038898 0.014933,0.067368c0.041632,0.016739 -0.00349,0.026111 -0.028847,0.029272c-0.059382,0.020756 0.010741,-0.037182 -0.036301,-0.054319c-0.043079,0.006565 -0.013888,0.057148 -0.028675,0.051306c-0.030441,-0.016714 -0.030418,-0.079203 -0.081508,-0.03843c-0.016956,-0.05024 0.013982,-0.102563 -0.009851,-0.152512c0.009763,-0.037302 -0.07423,-0.050169 -0.063606,-0.006904c0.004235,0.06603 -0.02436,0.131929 -0.007949,0.197634c0.022604,0.040526 0.085822,0.058783 0.1255,0.090056c0.032586,0.024113 0.074831,0.049894 0.12555,0.042303c0.057525,-0.001748 0.115157,-0.005474 0.172423,0.00093c0.072029,0.001593 0.127014,-0.038329 0.188483,-0.058836c0.072262,-0.040234 0.060884,-0.1121 0.053681,-0.169345c-0.008833,-0.035342 0.01055,-0.070701 0.006938,-0.105713c-0.052097,-0.044697 -0.09484,0.033867 -0.08,0.06762c-0.000004,0.042459 0.011625,0.097154 -0.046138,0.124812c-0.04767,-0.000843 -0.093037,0.011298 -0.141074,0.00495c-0.038979,0.016231 -0.102117,0.015814 -0.114983,-0.022824c-0.005137,-0.034313 0.017037,-0.070288 -0.013091,-0.102312c0.026471,0.015986 0.072654,-0.013807 0.046915,0.022033c-0.031393,0.029173 0.026583,0.074128 0.048408,0.031067c0.007241,-0.028891 -0.031321,-0.067236 0.032067,-0.061046c0.012927,0.010191 -0.044145,0.081475 0.033869,0.063461c0.05562,-0.008543 -0.009895,-0.069721 0.065425,-0.069933c0.036452,-0.030091 0.026637,-0.086494 0.082396,-0.109322c0.06217,-0.029502 0.159239,-0.008203 0.203613,-0.058164c0.037822,-0.025567 0.020023,-0.096431 -0.045206,-0.07295c-0.081516,0.005572 -0.016822,-0.077416 -0.019096,-0.108513c0.019207,-0.027084 -0.023325,-0.084096 -0.008679,-0.090145c0.027673,0.029688 0.037584,0.064412 0.031633,0.099107c-0.000511,0.029423 -0.018307,0.109163 0.04003,0.060007c0.019748,-0.034257 0.014005,-0.07306 0.028074,-0.108701c0.027137,-0.076948 -0.021452,-0.153938 -0.07562,-0.219113c-0.046134,-0.035086 -0.104702,-0.063056 -0.159701,-0.090594c-0.092512,-0.024397 -0.194659,-0.028768 -0.292365,-0.022653c-0.086425,0.010504 -0.17782,0.021578 -0.246668,0.062897c-0.067099,0.027723 -0.13136,0.064542 -0.157887,0.117811c-0.023117,0.042913 -0.063598,0.086615 -0.0452,0.134285c0.017595,0.039739 0.008263,0.081008 0.011112,0.121625c0.029995,0.046421 0.058314,-0.023754 0.055507,-0.046965c0.001661,-0.044017 0.034779,-0.082978 0.059183,-0.122053l0,0zm0.550927,0.094432c0.061683,0.003099 0.139782,0.027185 0.141466,0.077398c0.009379,0.05039 -0.048688,0.099235 -0.123103,0.094293c-0.067593,-0.003893 -0.110822,-0.044833 -0.106334,-0.090861c-0.02263,-0.033002 0.012586,-0.068349 0.059849,-0.075935c0.009165,-0.002161 0.018586,-0.003779 0.028122,-0.004896l0,0zm-0.416255,0.004292c0.071557,-0.008923 0.15297,0.022203 0.153209,0.077742c0.006721,0.053692 -0.074575,0.064211 -0.130032,0.077662c-0.038373,0.017374 -0.078234,0.001197 -0.110119,-0.016307c-0.04137,-0.030363 -0.02921,-0.091548 0.014472,-0.119264c0.021182,-0.010992 0.047404,-0.015314 0.072471,-0.019833zm0.244856,0.141644c0.034641,0.033386 0.076229,0.084297 0.03143,0.122188c-0.039769,0.022364 -0.044783,-0.03181 -0.086524,-0.006297c-0.039158,-0.024047 -0.003042,-0.072981 0.024434,-0.09741c0.009056,-0.007035 0.019419,-0.013228 0.030661,-0.018482z" fill-opacity="null" stroke-opacity="null" stroke-width="1.5" stroke="#000" fill="#fff"/>
  <path stroke="#000" id="svg_4" d="m162.291367,277.153045c-4.841863,20.706726 -17.209672,40.496355 -18.042488,61.848979c1.108109,12.363135 -9.8734,19.003954 -24.906773,18.770145c-16.168866,12.658725 1.995725,32.664468 20.290396,37.774416c18.67075,9.465663 41.833125,-1.111212 60.328195,7.379863c24.55838,14.499641 34.810941,40.207815 26.338322,62.745761c-8.424053,18.60513 34.698173,11.83861 18.478445,-3.033908c-12.527116,-14.53674 23.614521,-9.730609 14.362043,4.070681c-1.748352,11.078605 10.819587,14.664466 5.226438,25.397611c14.571089,6.310484 -1.221447,9.843817 -10.096607,11.035329c-20.783584,7.825166 3.759345,-14.017543 -12.705393,-20.478195c-15.077566,2.474941 -4.860968,21.544739 -10.036276,19.3422c-10.654247,-6.301193 -10.646388,-29.859572 -28.527826,-14.488009c-5.934671,-18.940477 4.893647,-38.666224 -3.447854,-57.496745c3.417018,-14.062882 -25.98046,-18.913555 -22.262207,-2.602971c1.482277,24.8934 -8.526079,49.737221 -2.782003,74.50797c7.911225,15.278392 30.037654,22.16112 43.924827,33.951024c11.405148,9.090685 26.190931,18.810105 43.942407,15.948035c20.133888,-0.659176 40.304897,-2.063598 60.347937,0.350739c25.210069,0.600546 44.454833,-14.450061 65.969072,-22.181208c25.291667,-15.168145 21.309567,-42.261617 18.788311,-63.842885c-3.09155,-13.324065 3.692478,-26.654194 2.428213,-39.853545c-18.233921,-16.850589 -33.194026,12.767694 -27.999832,25.492693c-0.001274,16.007082 4.068691,36.62694 -16.148152,47.054103c-16.684342,-0.317753 -32.563017,4.259455 -49.376048,1.866218c-13.642816,6.119065 -35.740823,5.961935 -40.244046,-8.604689c-1.797874,-12.936127 5.962809,-26.498342 -4.581804,-38.571343c9.264712,6.026729 25.428768,-5.205082 16.420395,8.306441c-10.987625,10.998356 9.303894,27.946104 16.942709,11.712351c2.534345,-10.891907 -10.962454,-25.347803 11.223435,-23.014284c4.524473,3.841897 -15.450695,30.715901 11.854093,23.924547c19.466831,-3.220631 -3.463305,-26.284596 22.89858,-26.364743c12.758199,-11.344386 9.323066,-32.607978 28.83853,-41.214173c21.759618,-11.122197 55.733738,-3.09241 71.264439,-21.927792c13.237762,-9.638754 7.008123,-36.35421 -15.822215,-27.50208c-28.530558,2.100659 -5.88758,-29.185853 -6.683628,-40.909254c6.72229,-10.210669 -8.163709,-31.704108 -3.037789,-33.984465c9.68557,11.192408 13.154556,24.283158 11.071552,37.363314c-0.178998,11.092401 -6.407296,41.154316 14.010381,22.622548c6.911929,-12.915014 4.901658,-27.543584 9.826057,-40.980161c9.497874,-29.009218 -7.508266,-58.034561 -26.466927,-82.605196c-16.146778,-13.22754 -36.645567,-23.772049 -55.895492,-34.153999c-32.379058,-9.197654 -68.130556,-10.845378 -102.3278,-8.540224c-30.248829,3.960055 -62.23686,8.135071 -86.333893,23.71218c-23.484626,10.451363 -45.97609,24.332383 -55.260527,44.414577c-8.090994,16.178224 -22.259358,32.653747 -15.81997,50.625421c6.158415,14.981397 2.892123,30.540114 3.88924,45.85263c10.498259,17.50069 20.409901,-8.955212 19.427432,-17.705943c0.581186,-16.594212 12.172773,-31.2825 20.714119,-46.013937l-0.000017,-0.000025zm192.824567,35.600685c21.588949,1.168424 48.923835,10.248616 49.512999,29.179018c3.282715,18.997157 -17.040863,37.411488 -43.086062,35.548524c-23.65739,-1.467697 -38.787645,-16.901928 -37.216732,-34.254386c-7.920425,-12.441903 4.405152,-25.767335 20.947214,-28.627519c3.207838,-0.814698 6.505132,-1.42451 9.842581,-1.845649l0,0.000013zm-145.689087,1.618068c25.04478,-3.364078 53.539357,8.370462 53.622982,29.308719c2.352213,20.241754 -26.101339,24.207517 -45.511107,29.278379c-13.43067,6.549824 -27.381961,0.451454 -38.541797,-6.147709c-14.479336,-11.446658 -10.223519,-34.513396 5.065188,-44.96224c7.413781,-4.144107 16.591433,-5.773174 25.364734,-7.477149zm85.699532,53.399496c12.124475,12.586375 26.679995,31.779761 11.000429,46.064833c-13.919165,8.431231 -15.674003,-11.992525 -30.283502,-2.373782c-13.705409,-9.065788 -1.064771,-27.513763 8.551737,-36.723491c3.169544,-2.652057 6.79658,-4.98688 10.731337,-6.967559z" fill-opacity="null" stroke-opacity="null" stroke-width="15.5" fill="#fff"/>
  <path stroke="#000" transform="rotate(-37.31947708129883 131.67335510253912,139.17320251464844) " id="svg_5" d="m54.129191,92.481453c-1.064862,-2.96537 -1.15932,-7.82248 -0.215312,-10.804663l3.123875,-9.846075c0.943877,-2.982165 5.141465,-5.849749 9.333303,-6.371619l28.789996,-3.576027c4.188806,-0.521864 11.050121,-0.504832 15.233013,0.038104l31.185349,4.038502c4.191786,0.542924 11.050008,0.598059 15.256516,0.12729l30.512868,-3.41927c-0.038339,0.106055 -0.106175,0.199501 -0.138721,0.305556l-20.884595,71.344137l-9.557527,1.187631c-4.191629,0.521933 -11.044024,0.500598 -15.235801,-0.038023l-31.176489,-4.042743c-4.182891,-0.538696 -11.05006,-0.593812 -15.25656,-0.123081l-33.477315,3.754418c-4.206508,0.470719 -7.005977,-1.599455 -6.238856,-4.611242l3.749062,-14.592919c0.772906,-3.007759 0.534116,-7.890419 -0.524926,-10.855795l-4.477879,-12.514176l0,-0.000006zm149.806423,-32.651569c4.185706,0.636219 6.861245,3.575983 5.979254,6.579445l-44.565827,152.228899l-15.796304,0l45.220685,-154.506906c0.896731,-3.016228 4.988169,-4.937864 9.162184,-4.301439l0.000009,0z" fill-opacity="null" stroke-opacity="null" stroke-width="15.5" fill="#fff"/>
  <path id="svg_6" d="m382.795694,266.796809c-27.842656,-8.930665 -47.799349,-37.30768 -43.263995,-61.518412c2.859858,-15.266704 63.195664,-107.946245 68.46489,-105.166379c1.719805,0.907307 17.023924,22.514796 34.009152,48.016653c27.208549,40.851283 30.882215,48.468784 30.882215,64.035582c0,31.553256 -29.582972,57.398952 -65.10346,56.878829c-10.365379,-0.151801 -21.610347,-1.16262 -24.988802,-2.246267l0,-0.000006zm27.895196,-15.870127c0.921604,-4.085025 -1.231216,-6.077275 -6.567157,-6.077275c-12.161157,0 -29.030656,-13.147828 -32.79956,-25.56345c-4.020396,-13.244099 -14.680257,-14.819217 -16.254776,-2.401824c-3.033528,23.923875 50.510899,56.695151 55.621486,34.042549l0.000007,0z" fill-opacity="null" stroke-opacity="null" stroke-width="15.5" stroke="#000" fill="#fff"/>
 </g>
</svg>