<svg width="580" height="580" xmlns="http://www.w3.org/2000/svg">
 <!-- Created with Method Draw - http://github.com/duopixel/Method-Draw/ -->
 <g>
  <title>background</title>
  <rect fill="#7f0000" id="canvas_background" height="582" width="582" y="-1" x="-1"/>
  <g display="none" overflow="visible" y="0" x="0" height="100%" width="100%" id="canvasGrid">
   <rect fill="url(#gridpattern)" stroke-width="0" y="0" x="0" height="100%" width="100%"/>
  </g>
 </g>
 <g>
  <title>Layer 1</title>
  <path transform="rotate(12.121758460998535 480.68756103515636,133.10076904296872) " id="svg_1" d="m217.769624,219.414724c-1.856415,-7.094526 28.175169,-23.942341 50.058082,-38.328068c17.373875,-11.375951 36.344554,-25.165303 54.41318,-37.331801c15.103031,-10.168962 48.432139,-27.334497 52.188852,-38.452577c4.388975,-12.989183 12.237313,-36.925943 20.667186,-54.788307c6.412671,-13.649833 18.581176,-31.59687 25.195883,-31.911511c2.565209,-0.122008 4.76268,6.387306 4.76268,6.387306c0,0 6.953657,43.371944 22.350527,64.279684c6.145337,8.364828 23.956284,8.029019 30.506396,7.511545c43.717203,-3.453544 101.13126,3.48472 101.13126,3.48472c0,0 18.656654,-14.044914 21.776014,-15.538447c7.908896,-3.696597 -0.008074,5.174543 19.518336,21.266643c10.705806,8.822838 16.585916,6.258948 25.035624,3.397352c3.406528,-1.186398 5.437246,-5.058694 8.256097,-7.298898c3.60716,-2.855438 76.189896,-56.535478 83.556929,-58.950419c7.367208,-2.414941 7.045811,13.032675 5.831313,16.790083c-13.384232,41.413857 -49.717201,69.906079 -49.717201,69.906079c0,0 -2.805335,6.061118 -1.543092,12.463434c1.142355,5.812677 20.615404,48.52936 10.407052,45.937758c-4.242933,0.499192 -14.701943,-4.780424 -14.701943,-4.780424c0,0 -10.49394,-6.394811 -18.001924,-15.464743c-5.310512,-6.450234 -8.403192,-16.468899 -8.403192,-16.468899c0,0 -2.41355,-8.144291 -9.552041,-10.497266c-17.243806,-5.684127 -30.118999,0.812293 -34.547644,6.420021c-3.794101,4.79505 -1.46305,12.870062 -1.46305,12.870062c0,0 5.364049,6.369024 2.084254,6.69829c-14.227834,1.343237 -20.874137,-10.00404 -30.766883,-16.285118c-3.446725,-2.170156 -8.720376,-5.765337 -17.647878,1.625548c-4.488326,3.715841 -7.747935,22.75806 -14.728975,29.092637c-4.702649,4.267184 -12.223797,-0.651605 -12.223797,-0.651605c0,0 -11.442509,-4.341659 -19.531676,-4.583172c-36.887998,19.908395 -103.883233,38.192589 -103.883233,38.192589c0,0 8.930662,11.570894 13.6133,19.550455c2.32438,3.978908 2.230998,7.408782 2.230998,7.408782c0,0 2.331226,5.449926 -2.525012,6.207758c-2.879058,0.439343 -30.887122,-4.630128 -45.849729,-11.032444c-12.598205,-5.395465 -22.550808,-13.294779 -22.550808,-13.294779c0,0 -45.84534,4.112847 -75.249577,5.430682c-17.126903,0.73955 -68.146543,0.480717 -70.696305,-9.26295z" stroke-width="17.5" stroke="#000" fill="#fff"/>
  <path stroke="#000" transform="rotate(-5.615070819854736 100.93757629394503,302.7557373046874) " id="svg_2" d="m380.40137,393.6705c1.97324,-7.47269 -29.94828,-25.21854 -53.20832,-40.37107c-18.46724,-11.98233 -38.63178,-26.50669 -57.8375,-39.3217c-16.05349,-10.711 -51.48005,-28.79151 -55.47318,-40.50222c-4.66518,-13.68155 -13.00743,-38.89421 -21.96781,-57.7087c-6.81623,-14.37741 -19.75052,-33.28108 -26.7815,-33.61249c-2.72665,-0.12851 -5.06241,6.72777 -5.06241,6.72777c0,0 -7.39126,45.6838 -23.75708,67.70599c-6.53208,8.8107 -25.4639,8.45699 -32.42622,7.91193c-46.4684,-3.63762 -107.49562,3.67047 -107.49562,3.67047c0,0 -19.83075,-14.79355 -23.14642,-16.36669c-8.40662,-3.89364 0.00858,5.45036 -20.74666,22.40022c-11.37954,9.29312 -17.62969,6.59257 -26.61116,3.57844c-3.6209,-1.24964 -5.77942,-5.32834 -8.77566,-7.68795c-3.83417,-3.00765 -80.98466,-59.549 -88.81531,-62.09266c-7.83084,-2.54367 -7.48922,13.72735 -6.19829,17.68504c14.22653,43.62135 52.84599,73.63229 52.84599,73.63229c0,0 2.98188,6.3842 1.6402,13.12778c-1.21424,6.12251 -21.91276,51.11612 -11.06198,48.38638c4.50994,0.5258 15.62716,-5.03524 15.62716,-5.03524c0,0 11.15434,-6.73567 19.13481,-16.28906c5.64472,-6.79405 8.93202,-17.34674 8.93202,-17.34674c0,0 2.56544,-8.57841 10.15317,-11.0568c18.32899,-5.98711 32.01444,0.85559 36.72179,6.76222c4.03287,5.05064 1.55512,13.55608 1.55512,13.55608c0,0 -5.70162,6.70851 -2.21542,7.05533c15.12322,1.41484 22.18778,-10.53729 32.7031,-17.15317c3.66363,-2.28583 9.26916,-6.07264 18.75849,1.7122c4.77078,3.91391 8.23552,23.97113 15.65589,30.64336c4.9986,4.49464 12.99306,-0.68633 12.99306,-0.68633c0,0 12.16261,-4.57309 20.76084,-4.82747c39.20942,20.96957 110.42079,40.22837 110.42079,40.22837c0,0 -9.49269,12.18766 -14.47001,20.59255c-2.47066,4.191 -2.3714,7.8037 -2.3714,7.8037c0,0 -2.47794,5.74042 2.68391,6.53865c3.06025,0.46276 32.83091,-4.87693 48.73513,-11.62051c13.39104,-5.68306 23.96997,-14.00343 23.96997,-14.00343c0,0 48.73047,4.33207 79.98517,5.72015c18.20472,0.77897 72.43512,0.50634 75.14534,-9.75669z" fill-opacity="null" stroke-opacity="null" stroke-width="17.5" fill="#fff"/>
  <path stroke="#000" transform="rotate(7.8285231590271 542.5625610351564,435.66073608398443) " id="svg_3" d="m209.714317,549.474507c-2.35018,-9.354859 35.669137,-31.570428 63.372417,-50.539482c21.994938,-15.000356 46.011395,-33.183029 68.885873,-49.225802c19.120101,-13.408817 61.314009,-36.043333 66.069924,-50.70366c5.556345,-17.127568 15.492166,-48.690637 26.164196,-72.243992c8.118299,-17.998702 23.523355,-41.663708 31.897427,-42.078595c3.247497,-0.160879 6.029447,8.422316 6.029447,8.422316c0,0 8.803175,57.190348 28.295269,84.759345c7.77986,11.029883 30.328122,10.587084 38.620417,9.904742c55.345005,-4.553852 128.029921,4.59496 128.029921,4.59496c0,0 23.618909,-18.519657 27.567949,-20.489034c10.012487,-4.874342 -0.010222,6.823165 24.709778,28.042246c13.553312,11.633815 20.9974,8.253063 31.694542,4.479756c4.312589,-1.564387 6.883432,-6.670406 10.452034,-9.624345c4.566585,-3.765187 96.454711,-74.547816 105.78121,-77.732163c9.326721,-3.184347 8.91984,17.184916 7.382312,22.139444c-16.94414,54.608411 -62.940869,92.178322 -62.940869,92.178322c0,0 -3.551492,7.992205 -1.95352,16.434314c1.446196,7.66461 26.098642,63.990929 13.175097,60.573637c-5.371459,0.658235 -18.612332,-6.303479 -18.612332,-6.303479c0,0 -13.285095,-8.432213 -22.790035,-20.391846c-6.72299,-8.505294 -10.638253,-21.71593 -10.638253,-21.71593c0,0 -3.055501,-10.739082 -12.092672,-13.84172c-21.830274,-7.495103 -38.129981,1.071091 -43.736547,8.465455c-4.803247,6.322764 -1.852189,16.970494 -1.852189,16.970494c0,0 6.790767,8.39821 2.638619,8.832381c-18.012121,1.771196 -26.426192,-13.191351 -38.950189,-21.473596c-4.363477,-2.861573 -11.039802,-7.602187 -22.341821,2.143452c-5.68212,4.899717 -9.808713,30.008832 -18.646554,38.36162c-5.953449,5.626719 -15.475055,-0.859208 -15.475055,-0.859208c0,0 -14.485962,-5.724922 -24.726667,-6.043382c-46.699383,26.251257 -131.513859,50.360839 -131.513859,50.360839c0,0 11.306019,15.257408 17.234135,25.779277c2.942614,5.246597 2.824394,9.769238 2.824394,9.769238c0,0 2.95128,7.186286 -3.196609,8.185565c-3.644823,0.579318 -39.102408,-6.105298 -58.044735,-14.547407c-15.949047,-7.114473 -28.54882,-17.530527 -28.54882,-17.530527c0,0 -58.039179,5.42321 -95.264288,7.16091c-21.682277,0.975173 -86.272005,0.633875 -89.499947,-12.214148z" fill-opacity="null" stroke-opacity="null" stroke-width="14.5" fill="#fff"/>
  <path id="svg_7" d="m-189.542496,142.502595l0.484898,-0.361835l0.5151,0.384368l0.5151,-0.384368l0.484903,0.361835l-0.5151,0.384372l0.5151,0.384372l-0.484903,0.361838l-0.5151,-0.384372l-0.5151,0.384372l-0.484898,-0.361838l0.515095,-0.384372l-0.515095,-0.384372z" fill-opacity="null" stroke-opacity="null" stroke-width="1.5" stroke="#000" fill="#fff"/>
  <path id="svg_11" d="m334.264907,135.110976l11.152649,-10.910209l11.847286,11.589651l11.847286,-11.589651l11.152753,10.910209l-11.847289,11.589746l11.847289,11.589746l-11.152753,10.910311l-11.847286,-11.589749l-11.847286,11.589749l-11.152649,-10.910311l11.847189,-11.589746l-11.847189,-11.589746z" fill-opacity="null" stroke-opacity="null" stroke-width="8.5" stroke="#000" fill="#fff"/>
  <path stroke="#000" id="svg_12" d="m202.502511,321.393225l11.152652,-12.122458l11.84729,12.877394l11.84729,-12.877394l11.152757,12.122458l-11.847293,12.877499l11.847293,12.877499l-11.152757,12.122572l-11.84729,-12.877503l-11.84729,12.877503l-11.152652,-12.122572l11.847193,-12.877499l-11.847193,-12.877499z" fill-opacity="null" stroke-opacity="null" stroke-width="8.5" fill="#fff"/>
  <path stroke="#000" id="svg_13" d="m341.673927,461.680212l14.463037,-15.347898l15.36386,16.303701l15.36386,-16.303701l14.463173,15.347898l-15.363864,16.303834l15.363864,16.303834l-14.463173,15.348043l-15.36386,-16.303839l-15.36386,16.303839l-14.463037,-15.348043l15.363734,-16.303834l-15.363734,-16.303834z" fill-opacity="null" stroke-opacity="null" stroke-width="14.5" fill="#fff"/>
 </g>
</svg>