<svg width="580" height="580" xmlns="http://www.w3.org/2000/svg">
 <!-- Created with Method Draw - http://github.com/duopixel/Method-Draw/ -->
 <g>
  <title>background</title>
  <rect fill="#7f0000" id="canvas_background" height="582" width="582" y="-1" x="-1"/>
  <g display="none" overflow="visible" y="0" x="0" height="100%" width="100%" id="canvasGrid">
   <rect fill="url(#gridpattern)" stroke-width="0" y="0" x="0" height="100%" width="100%"/>
  </g>
 </g>
 <g>
  <title>Layer 1</title>
  <path stroke="#000" id="svg_2" d="m537.673701,335.484078l-60.764019,4.484893l-16.256985,109.27267l-53.756308,-26.418071l-77.959446,83.848639l-29.681414,-48.933466l-249.997539,209.261212l138.904265,-233.370788l-115.3782,-30.339373l36.103829,-45.140303l-79.214161,-82.84955l56.927775,-20.036004l-17.900173,-109.055512l59.677518,11.429573l49.096974,-100.637172l43.480113,39.266355l100.506164,-60.26722l13.478056,54.636335l120.005406,-0.762872l-20.803196,52.659672l101.403718,58.983697l-48.479532,33.963914l50.607156,100.003371z" stroke-width="26.5" fill="#fff"/>
  <path stroke="#000" id="svg_3" d="m398.294776,273.265921c-11.37332,-2.136025 -23.210664,-3.542418 -32.822587,-3.923095l-1.695108,-0.063446c0.388265,-0.951694 0.681831,-1.596732 0.77653,-1.691901c0.208337,-0.190339 0.378795,-0.993992 0.397735,-1.776496c0,-0.43355 0.170458,-1.839942 0.435614,-3.701033c2.604216,0.105744 6.06072,0.190339 9.82973,0.222062c14.555198,0.126893 29.782757,1.438116 40.228029,3.50012c6.221708,1.226628 8.276671,1.184331 3.683781,-0.063446c-4.649709,-1.258351 -18.437847,-3.108868 -29.422902,-3.912521c-7.377033,-0.560442 -17.954883,-0.77193 -24.186061,-0.655612c0.179928,-1.205479 0.388265,-2.548426 0.606072,-3.923095c0.880698,-5.318914 1.174265,-10.669551 1.193204,-21.317952c0.01894,-16.517183 -0.77653,-21.064167 -5.596696,-31.987503c-1.960264,-4.462389 -4.176215,-8.248017 -6.85619,-11.674117c2.339059,-7.708724 2.28224,-19.6472 -0.142048,-30.115838c-1.998144,-8.586398 -2.698914,-9.136265 -9.668742,-7.486662c-5.909202,1.406393 -10.64414,3.320356 -16.71433,6.735881c-2.869372,1.61788 -6.82778,4.134583 -9.697152,6.111992c-7.481201,-2.939678 -15.218089,-4.885364 -23.47582,-5.932228c-8.37137,-1.057438 -28.892589,-0.465273 -36.174923,1.036289c-7.121346,1.469839 -13.532452,3.267484 -19.337485,5.403509c-2.897782,-1.998558 -7.102406,-4.695025 -10.104357,-6.386926c-6.0986,-3.4261 -10.833537,-5.329488 -16.761679,-6.735881c-6.950888,-1.660178 -7.670599,-1.099736 -9.659273,7.486662c-2.462168,10.606104 -2.481107,22.745494 -0.047349,30.433069c0.284096,0.877674 0.454554,1.501562 0.520843,1.987984c-9.86761,13.873588 -13.087367,29.39678 -10.947176,51.063687c0.558723,5.64672 1.420481,10.828166 2.623155,15.576063c-6.297467,-0.042298 -15.255969,0.211488 -21.723893,0.67676c-11.003995,0.814227 -24.792133,2.643595 -29.441842,3.901947c-4.58342,1.247777 -2.547396,1.290075 3.683781,0.074021c10.445272,-2.05143 25.682301,-3.383802 40.228029,-3.50012c2.746264,-0.010574 5.3126,-0.074021 7.519081,-0.137467c0.662891,2.506128 1.420481,4.895938 2.28224,7.16943l-0.066289,0.010574c-9.611923,0.370103 -21.439797,1.776496 -32.813117,3.912521c-8.532357,1.596732 -21.127291,4.790195 -22.595122,5.710166c-1.54359,0.962269 -0.284096,0.750781 6.325877,-1.120884c12.055151,-3.404951 27.727794,-6.016823 47.141038,-7.835616l2.168601,-0.211488c4.166745,10.807018 10.58732,19.055035 19.659461,25.484259c5.549347,3.944244 14.44156,7.994232 18.92081,8.628695c1.231084,0.16919 4.810697,0.993992 7.954695,1.818794c3.153468,0.824802 9.318357,2.062004 13.693439,2.770488l0.104169,0c-0.085229,0.063446 -0.160988,0.105744 -0.236747,0.16919c-5.30313,3.077145 -8.750165,7.86734 -11.070284,15.406873c-1.041686,0.348955 -2.339059,0.824802 -3.740601,1.364095c-5.009564,1.903389 -6.960358,2.294641 -12.036211,2.336938c-5.265251,0.042298 -6.515274,-0.211488 -9.659273,-1.861091c-4.57395,-2.379236 -8.835393,-6.75703 -11.676356,-11.980774c-4.744407,-8.734439 -12.945319,-14.909877 -19.782569,-14.909877c-5.842913,0 -6.950888,2.643595 -2.727324,6.503244c6.363756,5.805335 11.117633,11.726989 13.068428,16.252824c1.098506,2.537851 2.784143,6.460947 3.75954,8.71329c1.032216,2.400385 3.238697,5.657294 5.34101,7.909637c4.943275,5.266042 9.716092,7.782745 16.837438,8.967075c4.772817,0.782504 5.947082,0.782504 11.581657,-0.021149c2.717854,-0.370103 5.009564,-0.803653 7.064527,-1.342946c0,2.580149 0,5.55155 0,9.041096c0,18.674357 -0.198867,24.680606 -0.861759,26.435953c-1.250024,3.341504 -4.053107,6.778178 -6.780431,8.322038c-2.717854,1.54386 -3.560673,3.246335 -2.414818,4.811343c0.634482,0.84595 1.856096,0.993992 5.956551,0.697909c7.784237,-0.539293 13.286235,-3.753905 16.089318,-9.421774c0.899638,-1.818794 1.107975,-5.477529 1.392072,-24.511416c0.303036,-20.651766 0.435614,-22.63975 1.638288,-25.590002c0.72918,-1.755347 1.780337,-3.658736 2.367469,-4.176881c0.984867,-0.909397 1.051156,0.888248 1.051156,25.590002c-0.00947,27.260755 -0.255687,30.549387 -2.698914,35.79428c-0.549253,1.194905 -1.590939,2.749339 -2.320119,3.489546c-1.278433,1.300649 -1.818216,4.631579 -0.928048,5.636145c1.467831,1.628455 8.825924,-0.930546 12.841151,-4.462389c6.83725,-6.048546 7.651659,-11.050228 7.708478,-47.172314l0.02841,-21.19106l2.073903,0.222062l2.073903,0.211488l0.340916,27.715453c0.388265,31.204999 0.445084,31.659697 5.198961,37.687095c2.698914,3.404951 5.416769,5.287191 9.8392,6.75703c5.918672,1.987984 7.699008,-1.078587 3.721661,-6.397501c-4.327733,-5.784187 -4.53607,-7.994232 -4.299323,-42.234078c0.160988,-21.952415 0.160988,-21.952415 1.429951,-20.672915c2.670505,2.707042 3.181878,7.148282 3.181878,27.736602c0,25.568854 0.653421,28.000961 8.740695,32.46335c3.77848,2.062004 4.839106,2.315789 9.678212,2.336938c5.151612,0.021149 5.464118,-0.063446 5.653515,-1.565008c0.160988,-1.216054 -0.473494,-2.040856 -2.878842,-3.679885c-3.153468,-2.167748 -5.34101,-4.938236 -6.714141,-8.427782c-0.520843,-1.342946 -0.871229,-10.140832 -1.107975,-28.254746c-0.340916,-25.304494 -0.416675,-26.457102 -1.827686,-30.422495c-1.903445,-5.329488 -4.810697,-9.538092 -8.494478,-12.329728c-0.956457,-0.697909 -1.912915,-1.2795 -3.153468,-1.71305c1.52465,-0.16919 3.00195,-0.348955 4.431902,-0.581591c14.886644,-2.210046 22.75611,-4.049988 29.072517,-6.778178c13.361994,-5.741889 22.396255,-15.279981 27.29218,-28.804614c0.435614,-1.205479 0.871229,-2.347513 1.240554,-3.267484l3.76901,0.348955c19.422714,1.829368 35.095357,4.44124 47.150508,7.856765c6.609973,1.871665 7.869466,2.093727 6.325877,1.11031c-1.439421,-0.898822 -14.034355,-4.081711 -22.557242,-5.678443zm-56.951829,-0.327806c-2.206481,5.414083 -8.3619,12.372026 -13.333584,15.100216c-4.905395,2.707042 -12.594934,4.769046 -21.307219,5.752463c-5.956551,0.67676 -39.176873,0.877674 -44.659931,0.274934c-18.153751,-1.987984 -28.324396,-5.88993 -35.824537,-13.704398c-7.102406,-7.423216 -10.416863,-17.500601 -9.8392,-29.90435c0.369325,-7.761596 2.045493,-12.636386 6.430045,-18.558039c3.986817,-5.392934 8.181972,-8.723864 13.125247,-10.415765c4.138335,-1.416967 16.837438,-1.54386 33.911623,-0.317231c7.54749,0.539293 13.788138,0.539293 21.326159,0c17.860184,-1.258351 29.782757,-1.120884 34.186249,0.401826c6.922479,2.38981 13.229416,8.819034 17.017366,17.384283c1.704578,3.827926 2.036023,5.456381 2.28224,11.36746c0.340916,8.142274 -0.918578,16.792117 -3.314456,22.618601zm-90.058512,-34.958904c-10.161176,-1.987984 -15.966209,17.437155 -8.172502,27.355924c3.702721,4.7056 6.988768,5.477529 11.098694,2.622447c3.80689,-2.65417 5.871323,-7.613554 5.871323,-14.042778c0,-8.575823 -3.494384,-14.878154 -8.797514,-15.935592zm61.677296,1.163182c-10.161176,-1.987984 -15.975679,17.416006 -8.181972,27.34535c3.712191,4.7056 6.988768,5.488104 11.108163,2.611872c3.79742,-2.643595 5.871323,-7.613554 5.871323,-14.042778c0,-8.5441 -3.494384,-14.86758 -8.797514,-15.914444zm-27.33006,38.194665c-0.217807,0.782504 -1.278433,1.945686 -2.348529,2.569575c-2.708384,1.554434 -4.659179,1.015141 -7.519081,-1.892814c-1.770867,-1.78707 -2.575806,-2.72819 -3.115589,-0.856525c-0.501903,1.734199 2.651565,5.21317 5.085323,6.281182c2.234891,0.993992 3.835299,1.025715 6.259587,-0.105744c2.405348,-1.120884 4.507661,-4.134583 4.507661,-6.090844c0,-1.818794 -2.339059,-1.734199 -2.869372,0.095169zm-3.00195,-6.080269c1.54359,-1.522711 1.893975,-4.652728 0.416675,-6.312906s-4.479251,-1.406393 -5.653515,0.454698c-1.363662,2.178323 -0.634482,3.8385 0.340916,5.604422c1.51518,1.311223 3.551203,1.575583 4.895925,0.253785z" fill-opacity="null" stroke-opacity="null" stroke-width="6.5" fill="#fff"/>
  <path d="m240.5,249.850006c0,1 0,1 0,3c0,2 0,2 0,3c0,1 1.458801,0.693451 2,2c0.38269,0.923889 0.693436,2.458801 2,3c1.847763,0.765381 3,0 4,0c1,0 2.173096,-0.852722 3,-2c1.307449,-1.813995 1,-4 1,-6c0,0 0,-1 0,-2c0,-1 -0.298691,-2.051468 -2,-1c-1.902115,1.175568 -1,5 -1,8c0,3 -0.486252,4.823761 -1,7c-0.229752,0.973236 0,-1 0,-8c0,-3 0,-4 0,-5c0,-1 0,-1 0,-2c0,-1 0,-2 0,-3c0,0 -0.053497,-1.459503 -2,-1c-2.176254,0.513748 -2,3 -2,5c0,1 0,4 0,4c0,2 -0.902115,5.824432 1,7c0.850647,0.525726 2,1 3,1c0,0 1,0 2,0c1,0 2,0 2,0c1,0 2,0 2,-1c0,-2 0.458801,-3.693451 1,-5c0.38269,-0.923874 0,-2 0,-3c0,-1 0,-3 0,-3c-1,-2 -2,-3 -2,-4c0,0 -0.458801,-0.693436 -1,-2c-0.38269,-0.923874 0,-2 -1,-2c-1,0 -3,0 -3,0l-1,0l0,0l0,1" id="svg_6" fill-opacity="null" stroke-opacity="null" stroke-width="6.5" stroke="#000" fill="none"/>
  <path d="m313.5,249.850006c0,0 -0.292908,0.292892 -1,1c-0.707092,0.707108 -2,0 -2,0c-1,2 -1.458801,2.693436 -2,4c-0.38269,0.923874 0,2 0,4c0,0 0,1 0,2c0,2 0.61731,2.076111 1,3c0.541199,1.306549 3,1 3,1c1,0 1,-1 1,-2c0,-2 0.229767,-4.026764 0,-5c-0.513733,-2.176254 -1,-3 -1,-3c0,-1 0,-2 0,-3c0,-1 0,-1 0,-1c0,-1 -0.458801,-1.693436 -1,-3c-0.38269,-0.923874 -1.076111,-1.38269 -2,-1c-1.306549,0.541199 -1,2 -1,4c0,1 0,2 0,4c0,0 -0.307465,1.186005 1,3c0.826904,1.147278 1,1 2,1c1,0 1.292908,0.707092 2,0c0.707092,-0.707092 1,-3 1,-4c0,-1 0,-2 0,-3c0,-1 -0.076111,-0.61731 -1,-1c-1.306549,-0.541199 -0.292908,-2.292892 -1,-3c-0.707092,-0.707108 -2,0 -3,0c-1,0 -1,1 -1,2c0,1 0,1 0,2c0,2 0,3 0,3c0,1 0,2 0,3c0,1 -0.693451,1.458801 -2,2c-0.923889,0.38269 -2,0 -2,-1c0,-1 0,-2 0,-3c0,-1 0,-1 0,-2c0,-1 0.458801,-2.693436 1,-4c0.38269,-0.923874 -0.707092,-2.292892 0,-3c0.707092,-0.707108 2.458801,0.306564 3,-1c0.38269,-0.923874 0,-1 1,-1c1,0 1.61731,0.076126 2,1c0.541199,1.306564 1.292908,0.292892 2,1c0.707092,0.707108 1.458801,1.693436 2,3c0.38269,0.923874 1,1 1,2c0,1 0,2 0,3c0,0 0,1 0,2l0,1l0,1l0,0" id="svg_7" fill-opacity="null" stroke-opacity="null" stroke-width="6.5" stroke="#000" fill="none"/>
  <path d="m317.5,255.850006c0,1 0,2 0,3l0,0" id="svg_8" fill-opacity="null" stroke-opacity="null" stroke-width="6.5" stroke="#000" fill="none"/>
  <path d="m313.5,261.850006c1,0 3,-1 3,-1c2,-2 3.458801,-3.693451 4,-5c0.38269,-0.923874 -1,-1 -2,-1l-1,0" id="svg_9" fill-opacity="null" stroke-opacity="null" stroke-width="6.5" stroke="#000" fill="none"/>
 </g>
</svg>