<svg width="580" height="580" xmlns="http://www.w3.org/2000/svg">
 <!-- Created with Method Draw - http://github.com/duopixel/Method-Draw/ -->
 <g>
  <title>background</title>
  <rect fill="#7f0000" id="canvas_background" height="582" width="582" y="-1" x="-1"/>
  <g display="none" overflow="visible" y="0" x="0" height="100%" width="100%" id="canvasGrid">
   <rect fill="url(#gridpattern)" stroke-width="0" y="0" x="0" height="100%" width="100%"/>
  </g>
 </g>
 <g>
  <title>Layer 1</title>
  <path stroke="#000" transform="rotate(2.7716526985168457 417.80245971679636,219.54273986816426) " id="svg_5" d="m439.043965,368.642982c10.554905,-4.893196 19.212297,-9.449826 2.816273,-9.583181c-14.480019,2.4581 -51.938536,-15.609775 -21.91708,-24.490565c18.781821,-9.262524 61.525086,12.131805 61.752926,-24.463558c-3.397647,-22.934098 -58.532832,-5.027324 -40.395146,-35.784976c19.975325,-10.316582 59.58477,13.990616 66.28563,-17.932957c-6.142611,-30.953698 -44.562932,-11.199179 -63.873964,-19.753729c-18.720524,4.877304 -23.650566,-26.216055 -2.640078,-21.522891c48.570485,-3.309772 97.479754,1.547706 145.88291,-5.206706c7.818741,-5.470237 13.598351,-39.120124 3.731425,-41.386163c-70.508468,-1.845358 -141.141539,-0.149213 -211.538397,-5.65357c-25.291268,-0.331773 -5.967348,-34.442818 12.721463,-26.431945c17.802164,-7.363202 24.857211,-26.670067 37.922823,-45.734084c6.676722,-41.670294 -25.412317,-26.204149 -38.517258,-14.010459c-14.633567,12.117494 -39.803853,37.26999 -53.156457,50.474082c-11.704899,10.690413 -38.672125,22.55312 -55.07655,36.883463c-14.021917,6.294077 -29.366123,3.160542 -43.13822,4.290762c0,56.458617 0,112.916411 0,169.375011c38.963564,21.429257 79.96405,40.252731 123.160384,38.09943c25.304143,-0.130143 51.3351,1.065173 75.979303,-7.167946l0.000013,-0.000017zm-160.531682,18.10837c-19.89033,-9.653037 -39.74458,-19.429087 -59.454694,-29.656777c0.943231,-70.504795 1.886449,-141.01038 2.829626,-211.515175c15.736724,-0.754842 39.087423,9.104567 50.304184,-5.413078c30.156857,-12.225439 49.736257,-39.265384 76.173006,-59.560403c18.604375,-18.464745 33.464676,-24.766759 52.680488,-38.770105c14.595263,-8.525188 22.497895,-4.171718 38.933036,-0.454802c7.168108,14.816087 16.06676,22.473763 11.449168,50.698699c-9.635279,6.121859 -22.139287,47.267513 -3.204371,47.594509c52.714958,6.380581 106.278712,-2.587487 158.578997,8.564068c13.023194,22.269762 15.506861,72.300948 -8.328701,86.423355c-22.810158,8.329898 -46.860218,4.197884 -70.295513,5.199542c-0.001425,21.068106 2.756254,47.954046 -15.7574,58.537304c-13.670352,22.520597 -14.63169,55.604592 -36.659634,72.083494c-18.526169,23.977813 -44.89864,31.384722 -70.622434,30.594178c-42.180703,0.722268 -86.579701,5.829723 -126.625746,-14.323246l0,-0.001598l-0.000013,0.000034z" fill-opacity="null" stroke-opacity="null" stroke-width="6" fill="#fff"/>
  <rect id="svg_10" height="3" width="93" y="189.85" x="310.5" fill-opacity="null" stroke-opacity="null" stroke-width="23" stroke="#000" fill="#fff"/>
  <rect id="svg_11" height="122" width="1" y="202.85" x="352.5" fill-opacity="null" stroke-opacity="null" stroke-width="23" stroke="#000" fill="#fff"/>
  <rect transform="rotate(4.820229530334473 384.99999999999994,255.35000610351588) " id="svg_12" height="3" width="31" y="253.85" x="369.5" fill-opacity="null" stroke-opacity="null" stroke-width="23" stroke="#000" fill="#fff"/>
  <rect stroke="#000" id="svg_13" height="64.000002" width="3" y="240.850002" x="297.5" fill-opacity="null" stroke-opacity="null" stroke-width="23" fill="#fff"/>
  <rect stroke="#000" id="svg_14" height="1" width="134.000001" y="319.850006" x="284.499999" fill-opacity="null" stroke-opacity="null" stroke-width="23" fill="#fff"/>
  <path stroke="#000" id="svg_9" d="m82.521959,998.450679c-43.573824,-13.25465 -32.359577,-54.977234 -34.580483,-84.655706c-0.512103,-115.374498 -0.135055,-230.750812 -0.248209,-346.126054c77.874472,-0.943874 155.748944,-2.264399 233.635555,-2.084481c-0.084747,132.499961 2.124861,265.030514 -0.53148,397.50655c-2.086107,35.513095 -50.816757,40.066385 -84.905427,36.631383c-37.794994,0.01107 -75.588452,-0.463426 -113.369955,-1.271692zm-112.260928,-345.302463c-24.659454,-2.153817 -45.068272,-52.426679 -16.103377,-52.305979c22.806494,-0.241786 45.612951,-0.483602 68.419481,-0.725418c3.681645,24.42238 -5.848112,59.199492 -45.257473,54.216522l-7.058631,-1.185095l0,0l0,-0.00003zm365.079645,-0.01967c-25.526816,-2.597097 -39.315071,-45.852085 -20.736693,-52.236464c24.374355,-0.258421 48.748747,-0.516872 73.123066,-0.775293c3.68808,24.430325 -5.866429,59.227257 -45.291511,54.209975l-7.094753,-1.198159c0,0 -0.00011,0 -0.00011,0l0,-0.00006zm-393.456866,-168.106021c2.007977,-40.402088 -3.969852,-81.648658 6.181471,-121.408919c14.863938,-30.95927 50.918651,-58.834834 92.613776,-61.42101c86.300869,0.592994 172.829182,-2.990056 258.946371,1.614656c51.344398,9.215941 92.312809,50.499262 87.438341,93.969492c1.189826,64.578337 0.583067,129.170095 0.877526,193.754771c-27.119576,0.282942 -54.239188,0.565884 -81.358654,0.848856c0,-58.129205 0,-116.258439 0,-174.387674c-15.898565,-15.141655 -29.439707,5.205354 -23.963963,18.152125c-0.062043,39.215148 -0.124086,78.430326 -0.186203,117.645474c-78.568428,0 -157.136855,0 -235.705283,0c-0.644014,-45.43532 -1.287991,-90.87067 -1.932005,-136.30599c-15.40434,-14.338389 -26.2328,5.311085 -21.337711,17.231641c-0.259616,52.271846 -0.519269,104.543663 -0.778885,156.815568c-27.140305,0.283061 -54.280648,0.566241 -81.42099,0.849273c0.208761,-35.786038 0.417302,-71.572285 0.626209,-107.358204l0,-0.00006zm206.273948,-210.478199c-41.80594,-6.143128 -74.109177,-37.771572 -75.105451,-72.219647c60.455355,0 120.910674,0 181.366029,0c2.139376,44.840957 -52.957485,80.413093 -106.260578,72.219647zm-93.702475,-100.525606c10.296907,-8.39116 19.136219,-19.638969 35.711556,-15.725543c54.750523,0 109.50101,0 164.251461,0c-1.761267,9.688265 3.342473,24.964249 -2.351975,31.451055c-72.286269,0 -144.572464,0 -216.858733,0c6.415897,-5.241838 12.831795,-10.483705 19.247619,-15.725543l0.000073,0.00003zm69.069417,-27.811673c-16.905113,-0.18218 -33.810189,-0.364331 -50.715301,-0.546511c1.765106,-9.667732 -3.346458,-24.932675 2.352012,-31.39883c59.75226,0 119.504665,0 179.256998,0c-1.761194,9.68895 3.342473,24.962999 -2.351975,31.451948c-42.85625,-0.229228 -85.683545,1.343796 -128.541697,0.493393l-0.000037,0zm90.219975,853.156558c-23.946597,-6.69562 -41.603833,-27.122233 -36.887488,-47.845505c-0.8474,-98.600154 1.119739,-197.26158 -2.280463,-295.812275c-27.525873,-25.037574 -19.467786,35.64055 -20.522338,49.503758c-1.48699,88.830023 2.410509,177.876657 -2.890256,266.568394c-3.773814,20.283296 -54.588012,30.939183 -8.663309,27.270161c23.739957,0.244375 47.508943,1.094511 71.243891,0.315498l-0.000037,-0.00003z" fill-opacity="null" stroke-opacity="null" stroke-width="23" fill="#fff"/>
 </g>
</svg>